<svg width="147.651581" height="99.543945" viewBox="0 0 147.652 99.5439" fill="none" xmlns="http://www.w3.org/2000/svg" xmlns:xlink="http://www.w3.org/1999/xlink">
	<desc>
			Created with Pixso.
	</desc>
	<defs>
		<filter id="filter_4_1_dd" x="0.000000" y="0.000000" width="147.651581" height="99.543945" filterUnits="userSpaceOnUse" color-interpolation-filters="sRGB">
			<feFlood flood-opacity="0" result="BackgroundImageFix"/>
			<feColorMatrix in="SourceAlpha" type="matrix" values="0 0 0 0 0 0 0 0 0 0 0 0 0 0 0 0 0 0 127 0" result="hardAlpha"/>
			<feOffset dx="0" dy="4"/>
			<feGaussianBlur stdDeviation="1.33333"/>
			<feComposite in2="hardAlpha" operator="out" k2="-1" k3="1"/>
			<feColorMatrix type="matrix" values="0 0 0 0 0 0 0 0 0 0 0 0 0 0 0 0 0 0 0.25 0"/>
			<feBlend mode="normal" in2="BackgroundImageFix" result="effect_dropShadow_1"/>
			<feBlend mode="normal" in="SourceGraphic" in2="effect_dropShadow_1" result="shape"/>
		</filter>
	</defs>
	<g filter="url(#filter_4_1_dd)">
		<path id="矢量 1" d="M31.419 29.1959L71.532 29.1959L71.532 91.3413L52.4713 48.3414L21.4713 48.3414L4.47131 0.34127L31.419 29.1959ZM116.233 29.1959L76.1196 29.1959L76.1196 91.3413L95.1802 48.3414L126.18 48.3414L143.18 0.34127L116.233 29.1959Z" fill="#05988A" fill-opacity="1.000000" fill-rule="evenodd"/>
	</g>
	<path id="矢量 1" d="M31.419 29.1959L4.47131 0.34127L21.4713 48.3414L52.4713 48.3414L71.532 91.3413L71.532 29.1959L31.419 29.1959ZM116.233 29.1959L143.18 0.34127L126.18 48.3414L95.1802 48.3414L76.1196 91.3413L76.1196 29.1959L116.233 29.1959Z" stroke="#05988A" stroke-opacity="1.000000" stroke-width="1.000000"/>
</svg>
