<?xml version="1.0" standalone="no"?><!DOCTYPE svg PUBLIC "-//W3C//DTD SVG 1.1//EN" "http://www.w3.org/Graphics/SVG/1.1/DTD/svg11.dtd"><svg height="1024" node-id="1" sillyvg="true" template-height="1024" template-width="1024" version="1.1" viewBox="0 0 1024 1024" width="1024" xmlns="http://www.w3.org/2000/svg" xmlns:xlink="http://www.w3.org/1999/xlink"><defs node-id="41"></defs><g node-id="113"><g node-id="114"><path d="M 0.00 0.00 L 1024.00 0.00 L 1024.00 1024.00 L 0.00 1024.00 Z" fill="none" group-id="1,2" node-id="46" stroke="none" target-height="1024" target-width="1024" target-x="0" target-y="0"></path><path d="M 804.28 425.89 C 768.48 453.36 721.97 475.76 670.28 489.00 C 529.05 525.20 395.41 479.90 371.81 387.82 C 352.63 313.00 411.09 231.41 509.81 183.61" fill="#ffffff" fill-rule="nonzero" group-id="1,2" node-id="48" stroke="none" target-height="341.59003" target-width="451.65002" target-x="352.63" target-y="183.61"></path><path d="M 573.70 505.52 C 538.86 505.52 505.58 500.44 475.70 490.31 C 418.00 470.75 379.74 434.70 368.00 388.81 C 348.78 313.81 405.08 229.91 508.11 180.01 C 509.40 179.34 510.96 179.43 512.17 180.23 C 513.38 181.04 514.06 182.44 513.94 183.89 C 513.82 185.34 512.92 186.61 511.59 187.21 C 412.09 235.40 357.50 315.62 375.75 386.82 C 398.75 476.63 530.48 520.72 669.36 485.13 C 719.63 472.24 765.46 450.66 801.87 422.71 C 803.62 421.37 806.14 421.70 807.48 423.45 C 808.82 425.20 808.49 427.72 806.74 429.06 C 769.48 457.65 722.66 479.72 671.35 492.88 C 639.45 501.15 606.65 505.40 573.70 505.52 Z" fill="#101129" fill-rule="nonzero" group-id="1,2" node-id="50" stroke="none" target-height="341.37964" target-width="460.04483" target-x="348.78" target-y="179.34032"></path><g node-id="115"><path d="M 694.83 253.17 L 708.86 264.05 L 721.99 274.93 L 734.27 285.79 L 746.19 297.09 L 757.05 308.11 L 766.89 318.87 L 774.09 327.30 L 780.59 335.41 L 786.42 343.23 L 791.63 350.76 L 796.67 358.73 L 800.94 366.21 L 804.49 373.24 L 807.39 379.86 L 809.94 386.90 L 811.69 393.32 L 812.72 399.18 L 813.12 404.54 L 812.96 408.99 L 812.32 413.02 L 811.22 416.71 L 809.69 420.08 L 807.72 423.19 L 805.29 425.95 L 802.48 428.36 L 799.25 430.44 L 795.56 432.19 L 791.34 433.59 L 786.08 434.71 L 780.16 435.35 L 773.51 435.47 L 766.04 435.00 L 758.87 434.07 L 751.12 432.63 L 742.75 430.63 L 733.69 428.01 L 725.00 425.12 L 715.86 421.71 L 706.25 417.75 L 696.14 413.20 L 683.06 406.76 L 669.44 399.43 L 655.26 391.14 L 641.39 382.40 L 627.27 372.83 L 612.89 362.41 L 598.86 351.53 L 585.73 340.65 L 573.45 329.79 L 561.53 318.49 L 550.67 307.47 L 540.83 296.71 L 533.63 288.28 L 527.13 280.17 L 521.30 272.35 L 516.09 264.82 L 511.05 256.85 L 506.78 249.37 L 503.23 242.34 L 500.33 235.72 L 497.78 228.68 L 496.04 222.26 L 495.00 216.40 L 494.60 211.04 L 494.76 206.59 L 495.40 202.56 L 496.50 198.87 L 498.03 195.50 L 500.00 192.39 L 502.43 189.63 L 505.24 187.22 L 508.47 185.14 L 512.16 183.39 L 516.38 181.99 L 521.64 180.87 L 527.56 180.23 L 534.21 180.11 L 541.68 180.58 L 548.85 181.51 L 556.60 182.95 L 564.97 184.95 L 574.03 187.57 L 582.72 190.46 L 591.86 193.87 L 601.47 197.83 L 611.58 202.38 L 624.66 208.82 L 638.28 216.15 L 652.46 224.44 L 666.33 233.18 L 680.45 242.75 L 694.83 253.17 Z" fill="#80adff" fill-rule="nonzero" group-id="1,2,3" node-id="54" stroke="none" target-height="255.36789" target-width="318.51746" target-x="494.60132" target-y="180.10608"></path></g><path d="M 774.93 438.40 C 735.22 438.40 672.69 411.61 610.10 364.80 C 521.94 298.87 471.89 221.80 496.17 189.33 C 508.17 173.26 536.03 171.01 574.59 182.98 C 611.83 194.54 655.19 217.98 696.69 249.03 C 784.85 315.00 834.90 392.00 810.62 424.50 C 803.58 433.92 791.16 438.40 774.93 438.40 Z M 531.75 183.40 C 517.99 183.40 507.91 186.99 502.57 194.12 C 481.71 222.00 533.14 297.25 614.89 358.40 C 696.64 419.55 783.34 447.62 804.21 419.71 L 804.21 419.71 C 825.08 391.81 773.65 316.58 691.90 255.44 C 651.11 224.93 608.61 201.91 572.22 190.62 C 556.68 185.79 543.00 183.40 531.75 183.40 Z M 807.42 422.11 L 807.42 422.11 Z" fill="#101129" fill-rule="nonzero" group-id="1,2" node-id="57" stroke="none" target-height="276.61" target-width="363.01" target-x="471.89" target-y="171.01"></path><path d="M 650.37 319.48 L 598.83 351.00 C 603.28 354.55 607.83 358.08 612.50 361.57 C 618.00 365.68 623.50 369.63 629.01 373.44 L 662.00 333.00 Z" fill="#81e6c1" fill-rule="nonzero" group-id="1,2" node-id="59" stroke="none" target-height="53.95999" target-width="63.169983" target-x="598.83" target-y="319.48"></path><path d="M 629.00 377.47 C 628.19 377.47 627.40 377.22 626.73 376.76 C 621.15 372.90 615.55 368.88 610.10 364.76 C 605.53 361.35 600.90 357.76 596.33 354.11 C 595.31 353.30 594.76 352.04 594.84 350.74 C 594.92 349.44 595.63 348.26 596.74 347.58 L 648.28 316.03 C 649.95 315.01 652.12 315.34 653.40 316.83 L 665.00 330.39 C 666.27 331.86 666.30 334.03 665.07 335.53 L 632.07 376.00 C 631.32 376.92 630.19 377.46 629.00 377.47 Z M 605.81 351.47 C 608.81 353.85 611.88 356.17 614.89 358.47 C 619.28 361.74 623.76 364.99 628.25 368.14 L 656.78 333.14 L 649.55 324.74 Z" fill="#101129" fill-rule="nonzero" group-id="1,2" node-id="61" stroke="none" target-height="62.464355" target-width="71.537964" target-x="594.7584" target-y="315.00565"></path><path d="M 296.00 650.00 L 528.00 649.85 L 388.73 546.17 C 381.34 540.67 371.90 538.71 362.94 540.84 C 353.98 542.96 346.41 548.94 342.28 557.17 Z" fill="#ffffff" fill-rule="nonzero" group-id="1,2" node-id="63" stroke="none" target-height="111.28601" target-width="232" target-x="296" target-y="538.714"></path><path d="M 296.00 654.00 C 294.61 654.00 293.32 653.28 292.59 652.10 C 291.87 650.92 291.80 649.45 292.42 648.21 L 338.70 555.39 C 343.37 546.11 351.90 539.37 362.02 536.97 C 372.13 534.58 382.78 536.79 391.11 543.00 L 530.39 646.64 C 531.77 647.67 532.34 649.47 531.80 651.11 C 531.26 652.75 529.73 653.85 528.00 653.85 L 296.00 654.00 Z M 370.14 544.00 C 368.00 544.00 365.88 544.25 363.80 544.75 C 356.00 546.60 349.43 551.82 345.86 559.00 L 302.47 646.00 L 515.94 645.86 L 386.34 549.38 C 381.66 545.89 375.98 544.00 370.14 544.00 Z" fill="#101129" fill-rule="nonzero" group-id="1,2" node-id="65" stroke="none" target-height="119.41669" target-width="240.54385" target-x="291.7993" target-y="534.5843"></path><path d="M 444.71 472.73 L 376.71 540.73 C 381.05 541.67 385.15 543.53 388.71 546.19 L 420.04 569.52 L 497.11 492.45 C 478.92 487.99 461.33 481.37 444.71 472.73 Z" fill="#ffffff" fill-rule="nonzero" group-id="1,2" node-id="67" stroke="none" target-height="96.79001" target-width="120.399994" target-x="376.71" target-y="472.73"></path><path d="M 420.45 574.77 L 386.34 549.38 C 383.24 547.06 379.67 545.43 375.88 544.62 L 368.71 543.07 L 444.00 467.82 L 446.61 469.19 C 462.95 477.68 480.25 484.18 498.14 488.55 L 504.98 490.26 Z M 384.17 538.92 C 386.63 539.99 388.96 541.33 391.11 542.92 L 419.68 564.19 L 489.39 494.48 C 474.22 490.33 459.51 484.67 445.47 477.59 Z" fill="#101129" fill-rule="nonzero" group-id="1,2" node-id="69" stroke="none" target-height="106.95001" target-width="136.27002" target-x="368.71" target-y="467.82"></path><path d="M 240.00 650.00 L 784.00 650.00 C 810.51 650.00 832.00 671.49 832.00 698.00 L 832.00 768.00 L 832.00 768.00 L 192.00 768.00 L 192.00 768.00 L 192.00 698.00 C 192.00 671.49 213.49 650.00 240.00 650.00 Z" fill="#ffffff" fill-rule="nonzero" group-id="1,2" node-id="71" stroke="none" target-height="118" target-width="640" target-x="192" target-y="650"></path><path d="M 832.00 772.00 L 192.00 772.00 C 189.79 772.00 188.00 770.21 188.00 768.00 L 188.00 698.00 C 188.03 669.29 211.29 646.03 240.00 646.00 L 784.00 646.00 C 812.71 646.03 835.97 669.29 836.00 698.00 L 836.00 768.00 C 836.00 770.21 834.21 772.00 832.00 772.00 Z M 196.00 764.00 L 828.00 764.00 L 828.00 698.00 C 827.97 673.71 808.29 654.03 784.00 654.00 L 240.00 654.00 C 215.71 654.03 196.03 673.71 196.00 698.00 Z" fill="#101129" fill-rule="nonzero" group-id="1,2" node-id="73" stroke="none" target-height="126" target-width="648" target-x="188" target-y="646"></path><path d="M 128.00 768.00 L 896.00 768.00 C 931.35 768.00 960.00 796.65 960.00 832.00 L 960.00 880.00 C 960.00 888.84 952.84 896.00 944.00 896.00 L 80.00 896.00 C 71.16 896.00 64.00 888.84 64.00 880.00 L 64.00 832.00 C 64.00 796.65 92.65 768.00 128.00 768.00 Z" fill="#ffffff" fill-rule="nonzero" group-id="1,2" node-id="75" stroke="none" target-height="128" target-width="896" target-x="64" target-y="768"></path><path d="M 944.00 900.00 L 80.00 900.00 C 68.95 900.00 60.00 891.05 60.00 880.00 L 60.00 832.00 C 60.04 794.46 90.46 764.04 128.00 764.00 L 896.00 764.00 C 933.54 764.04 963.96 794.46 964.00 832.00 L 964.00 880.00 C 964.00 891.05 955.05 900.00 944.00 900.00 Z M 128.00 772.00 C 94.88 772.04 68.04 798.88 68.00 832.00 L 68.00 880.00 C 68.00 886.63 73.37 892.00 80.00 892.00 L 944.00 892.00 C 950.63 892.00 956.00 886.63 956.00 880.00 L 956.00 832.00 C 955.96 798.88 929.12 772.04 896.00 772.00 Z" fill="#101129" fill-rule="nonzero" group-id="1,2" node-id="77" stroke="none" target-height="136" target-width="904" target-x="60" target-y="764"></path><path d="M 896.00 832.00 C 896.00 849.67 881.67 864.00 864.00 864.00 C 846.33 864.00 832.00 849.67 832.00 832.00 C 832.00 814.33 846.33 800.00 864.00 800.00 C 881.67 800.00 896.00 814.33 896.00 832.00 Z" fill="#ffdc8a" fill-rule="nonzero" group-id="1,2" node-id="79" stroke="none" target-height="64" target-width="64" target-x="832" target-y="800"></path><path d="M 864.00 868.00 C 844.12 868.00 828.00 851.88 828.00 832.00 C 828.00 812.12 844.12 796.00 864.00 796.00 C 883.88 796.00 900.00 812.12 900.00 832.00 C 900.00 851.88 883.88 868.00 864.00 868.00 Z M 864.00 804.00 C 848.54 804.00 836.00 816.54 836.00 832.00 C 836.00 847.46 848.54 860.00 864.00 860.00 C 879.46 860.00 892.00 847.46 892.00 832.00 C 892.00 816.54 879.46 804.00 864.00 804.00 Z" fill="#101129" fill-rule="nonzero" group-id="1,2" node-id="81" stroke="none" target-height="72" target-width="72" target-x="828" target-y="796"></path><path d="M 768.00 832.00 C 768.00 849.67 753.67 864.00 736.00 864.00 C 718.33 864.00 704.00 849.67 704.00 832.00 C 704.00 814.33 718.33 800.00 736.00 800.00 C 753.67 800.00 768.00 814.33 768.00 832.00 Z" fill="#81e6c1" fill-rule="nonzero" group-id="1,2" node-id="83" stroke="none" target-height="64" target-width="64" target-x="704" target-y="800"></path><path d="M 736.00 868.00 C 716.12 868.00 700.00 851.88 700.00 832.00 C 700.00 812.12 716.12 796.00 736.00 796.00 C 755.88 796.00 772.00 812.12 772.00 832.00 C 772.00 851.88 755.88 868.00 736.00 868.00 Z M 736.00 804.00 C 720.54 804.00 708.00 816.54 708.00 832.00 C 708.00 847.46 720.54 860.00 736.00 860.00 C 751.46 860.00 764.00 847.46 764.00 832.00 C 764.00 816.54 751.46 804.00 736.00 804.00 Z" fill="#101129" fill-rule="nonzero" group-id="1,2" node-id="85" stroke="none" target-height="72" target-width="72" target-x="700" target-y="796"></path><path d="M 360.72 892.00 C 341.94 836.92 290.19 799.90 232.00 799.90 C 173.81 799.90 122.06 836.92 103.28 892.00 Z" fill="#80adff" fill-rule="nonzero" group-id="1,2" node-id="87" stroke="none" target-height="92.100525" target-width="257.44" target-x="103.28" target-y="799.8995"></path><path d="M 683.00 317.50 C 683.00 327.16 675.16 335.00 665.50 335.00 C 655.84 335.00 648.00 327.16 648.00 317.50 C 648.00 307.84 655.84 300.00 665.50 300.00 C 675.16 300.00 683.00 307.84 683.00 317.50 Z" fill="#81e6c1" fill-rule="nonzero" group-id="1,2" node-id="89" stroke="none" target-height="35" target-width="35" target-x="648" target-y="300"></path><path d="M 665.50 339.00 C 653.63 339.00 644.00 329.37 644.00 317.50 C 644.00 305.63 653.63 296.00 665.50 296.00 C 677.37 296.00 687.00 305.63 687.00 317.50 C 686.99 329.37 677.37 338.99 665.50 339.00 Z M 665.50 304.00 C 658.04 304.00 652.00 310.04 652.00 317.50 C 652.00 324.96 658.04 331.00 665.50 331.00 C 672.96 331.00 679.00 324.96 679.00 317.50 C 678.99 310.05 672.95 304.01 665.50 304.00 Z" fill="#101129" fill-rule="nonzero" group-id="1,2" node-id="91" stroke="none" target-height="43" target-width="43" target-x="644" target-y="296"></path><path d="M 332.00 646.00 L 463.82 645.91 L 388.73 599.00 C 383.27 595.59 376.66 594.51 370.40 596.01 C 364.14 597.52 358.74 601.48 355.43 607.00 Z" fill="#ffdc8a" fill-rule="nonzero" group-id="1,2" node-id="93" stroke="none" target-height="51.489746" target-width="131.82" target-x="332" target-y="594.51025"></path><path d="M 930.00 573.10 C 940.11 573.11 949.40 567.54 954.15 558.62 C 958.91 549.70 958.35 538.88 952.70 530.50 C 948.20 527.46 942.89 525.84 937.46 525.85 C 936.84 525.85 936.19 525.85 935.46 525.93 C 934.43 526.01 933.45 525.44 933.02 524.50 C 931.99 522.29 930.64 520.23 929.02 518.41 L 928.02 518.47 C 926.99 518.55 926.02 517.98 925.58 517.04 C 925.01 515.85 924.34 514.72 923.58 513.64 C 916.78 508.82 907.58 505.95 897.69 505.95 C 877.12 505.95 860.38 518.22 860.38 533.31 C 860.38 533.97 860.12 534.60 859.65 535.07 C 859.18 535.53 858.55 535.79 857.89 535.79 C 842.81 535.79 830.53 545.84 830.53 558.18 C 830.54 561.75 831.57 565.25 833.48 568.27 C 838.56 571.48 844.47 573.16 850.48 573.10 Z" fill="#80adff" fill-rule="nonzero" group-id="1,2" node-id="95" stroke="none" target-height="67.20978" target-width="128.37714" target-x="830.53" target-y="505.95"></path><path d="M 930.00 579.59 L 920.00 579.59 C 917.79 579.59 916.00 577.80 916.00 575.59 C 916.00 573.38 917.79 571.59 920.00 571.59 L 930.00 571.59 C 944.08 571.31 955.34 559.82 955.34 545.75 C 955.34 531.67 944.08 520.18 930.00 519.90 C 929.42 519.90 928.81 519.90 928.06 519.98 C 926.40 520.10 924.84 519.19 924.14 517.68 C 919.18 507.10 905.54 500.00 890.17 500.00 C 870.44 500.00 854.38 511.59 854.38 525.85 C 854.38 528.06 852.59 529.85 850.38 529.85 C 836.13 529.85 824.54 539.21 824.54 550.72 C 824.54 562.23 836.13 571.59 850.38 571.59 L 900.12 571.59 C 902.33 571.59 904.12 573.38 904.12 575.59 C 904.12 577.80 902.33 579.59 900.12 579.59 L 850.38 579.59 C 831.72 579.59 816.54 566.59 816.54 550.72 C 816.54 535.87 829.74 523.60 846.66 522.02 C 849.13 505.15 867.66 492.02 890.17 492.02 C 907.46 492.02 923.11 499.92 930.10 511.92 C 948.57 512.27 963.34 527.36 963.31 545.83 C 963.27 564.30 948.44 579.33 929.97 579.61 Z" fill="#101129" fill-rule="nonzero" group-id="1,2" node-id="97" stroke="none" target-height="87.59" target-width="146.8023" target-x="816.54" target-y="492.02"></path><path d="M 278.86 220.57 C 292.79 220.57 305.59 212.90 312.14 200.60 C 318.69 188.31 317.93 173.40 310.16 161.84 C 303.96 157.65 296.64 155.42 289.16 155.43 C 288.31 155.43 287.42 155.43 286.34 155.55 C 284.91 155.65 283.57 154.85 282.98 153.55 C 281.54 150.49 279.66 147.66 277.40 145.15 C 276.98 145.15 276.54 145.15 276.05 145.23 C 274.62 145.33 273.28 144.53 272.69 143.23 C 271.92 141.62 271.02 140.07 270.00 138.60 C 260.60 132.00 247.91 128.00 234.29 128.00 C 205.93 128.00 182.86 144.92 182.86 165.71 C 182.86 167.60 181.32 169.14 179.43 169.14 C 158.63 169.14 141.71 182.99 141.71 200.00 C 141.74 204.93 143.15 209.75 145.78 213.91 C 152.76 218.33 160.88 220.64 169.14 220.57 Z" fill="#80adff" fill-rule="nonzero" group-id="1,2" node-id="99" stroke="none" target-height="92.641205" target-width="176.98262" target-x="141.71" target-y="128"></path><path d="M 278.86 228.00 L 265.14 228.00 C 262.93 228.00 261.14 226.21 261.14 224.00 C 261.14 221.79 262.93 220.00 265.14 220.00 L 278.86 220.00 C 299.14 219.67 315.40 203.13 315.40 182.85 C 315.40 162.58 299.14 146.04 278.86 145.71 C 278.03 145.71 277.14 145.71 276.08 145.83 C 274.42 145.95 272.86 145.04 272.16 143.53 C 265.11 128.43 245.76 118.29 224.00 118.29 C 196.00 118.29 173.14 134.95 173.14 155.43 C 173.14 157.64 171.35 159.43 169.14 159.43 C 148.66 159.43 132.00 173.00 132.00 189.71 C 132.00 206.42 148.66 220.00 169.14 220.00 L 237.71 220.00 C 239.92 220.00 241.71 221.79 241.71 224.00 C 241.71 226.21 239.92 228.00 237.71 228.00 L 169.14 228.00 C 144.25 228.00 124.00 210.83 124.00 189.71 C 124.00 169.71 142.23 153.20 165.36 151.56 C 167.92 128.47 193.24 110.29 224.00 110.29 C 247.67 110.29 269.00 121.21 278.17 137.72 L 278.86 137.72 C 303.53 138.09 323.34 158.19 323.34 182.87 C 323.34 207.54 303.53 227.64 278.86 228.01 Z" fill="#101129" fill-rule="nonzero" group-id="1,2" node-id="101" stroke="none" target-height="117.71999" target-width="199.33807" target-x="124" target-y="110.29"></path><path d="M 275.20 337.66 L 280.32 358.41 C 280.89 360.73 282.71 362.55 285.03 363.12 L 305.77 368.24 C 306.49 368.41 307.00 369.06 307.00 369.81 C 307.00 370.55 306.49 371.20 305.77 371.37 L 285.00 376.48 C 282.68 377.05 280.86 378.87 280.29 381.19 L 275.17 401.94 C 275.00 402.66 274.35 403.17 273.61 403.17 C 272.86 403.17 272.21 402.66 272.04 401.94 L 267.00 381.19 C 266.43 378.87 264.61 377.05 262.29 376.48 L 241.54 371.37 C 240.82 371.20 240.31 370.55 240.31 369.81 C 240.31 369.06 240.82 368.41 241.54 368.24 L 262.29 363.12 C 264.61 362.55 266.43 360.73 267.00 358.41 L 272.11 337.66 C 272.31 336.97 272.94 336.50 273.65 336.50 C 274.37 336.50 275.00 336.97 275.20 337.66 Z" fill="#ccdeff" fill-rule="nonzero" group-id="1,2" node-id="103" stroke="none" target-height="66.66916" target-width="66.69403" target-x="240.30798" target-y="336.50284"></path><path d="M 867.20 190.66 L 872.32 211.41 C 872.89 213.73 874.71 215.55 877.03 216.12 L 897.77 221.24 C 898.49 221.41 899.00 222.06 899.00 222.81 C 899.00 223.55 898.49 224.20 897.77 224.37 L 877.00 229.48 C 874.68 230.05 872.86 231.87 872.29 234.19 L 867.17 254.94 C 867.00 255.66 866.35 256.17 865.61 256.17 C 864.86 256.17 864.21 255.66 864.04 254.94 L 859.00 234.19 C 858.43 231.87 856.61 230.05 854.29 229.48 L 833.54 224.37 C 832.82 224.20 832.31 223.55 832.31 222.81 C 832.31 222.06 832.82 221.41 833.54 221.24 L 854.29 216.12 C 856.61 215.55 858.43 213.73 859.00 211.41 L 864.11 190.66 C 864.31 189.97 864.94 189.50 865.65 189.50 C 866.37 189.50 867.00 189.97 867.20 190.66 Z" fill="#ccdeff" fill-rule="nonzero" group-id="1,2" node-id="105" stroke="none" target-height="66.66914" target-width="66.69403" target-x="832.308" target-y="189.50285"></path><path d="M 152.47 465.41 L 158.34 489.20 C 158.99 491.87 161.08 493.96 163.75 494.61 L 187.55 500.48 C 188.37 500.69 188.95 501.43 188.95 502.27 C 188.95 503.12 188.37 503.86 187.55 504.07 L 163.75 509.94 C 161.08 510.59 158.99 512.68 158.34 515.35 L 152.47 539.14 C 152.26 539.96 151.52 540.54 150.68 540.54 C 149.83 540.54 149.09 539.96 148.88 539.14 L 143.00 515.35 C 142.35 512.68 140.26 510.59 137.59 509.94 L 113.79 504.07 C 112.97 503.86 112.39 503.12 112.39 502.27 C 112.39 501.43 112.97 500.69 113.79 500.48 L 137.59 494.61 C 140.26 493.96 142.35 491.87 143.00 489.20 L 148.86 465.41 C 149.05 464.57 149.80 463.97 150.66 463.97 C 151.53 463.97 152.28 464.57 152.47 465.41 Z" fill="#ccdeff" fill-rule="nonzero" group-id="1,2" node-id="107" stroke="none" target-height="76.57669" target-width="76.564514" target-x="112.38774" target-y="463.96555"></path><path d="M 480.00 692.00 L 448.00 692.00 C 445.79 692.00 444.00 690.21 444.00 688.00 C 444.00 685.79 445.79 684.00 448.00 684.00 L 480.00 684.00 C 482.21 684.00 484.00 685.79 484.00 688.00 C 484.00 690.21 482.21 692.00 480.00 692.00 Z" fill="#101129" fill-rule="nonzero" group-id="1,2" node-id="109" stroke="none" target-height="8" target-width="40" target-x="444" target-y="684"></path><path d="M 256.00 740.00 C 253.79 740.00 252.00 738.21 252.00 736.00 L 252.00 720.00 C 252.00 700.12 268.12 684.00 288.00 684.00 L 416.00 684.00 C 418.21 684.00 420.00 685.79 420.00 688.00 C 420.00 690.21 418.21 692.00 416.00 692.00 L 288.00 692.00 C 272.54 692.00 260.00 704.54 260.00 720.00 L 260.00 736.00 C 260.00 738.21 258.21 740.00 256.00 740.00 Z" fill="#101129" fill-rule="nonzero" group-id="1,2" node-id="111" stroke="none" target-height="56" target-width="168" target-x="252" target-y="684"></path></g></g></svg>